G04 #@! TF.GenerationSoftware,KiCad,Pcbnew,5.1.9*
G04 #@! TF.CreationDate,2021-04-11T00:08:53+02:00*
G04 #@! TF.ProjectId,urp,7572702e-6b69-4636-9164-5f7063625858,rev?*
G04 #@! TF.SameCoordinates,Original*
G04 #@! TF.FileFunction,Legend,Bot*
G04 #@! TF.FilePolarity,Positive*
%FSLAX46Y46*%
G04 Gerber Fmt 4.6, Leading zero omitted, Abs format (unit mm)*
G04 Created by KiCad (PCBNEW 5.1.9) date 2021-04-11 00:08:53*
%MOMM*%
%LPD*%
G01*
G04 APERTURE LIST*
%ADD10C,0.200000*%
%ADD11C,0.150000*%
%ADD12C,0.120000*%
G04 APERTURE END LIST*
D10*
X132101238Y-142021904D02*
X132101238Y-142593333D01*
X132139333Y-142707619D01*
X132215523Y-142783809D01*
X132329809Y-142821904D01*
X132406000Y-142821904D01*
X131339333Y-142821904D02*
X131720285Y-142821904D01*
X131720285Y-142021904D01*
X130615523Y-142745714D02*
X130653619Y-142783809D01*
X130767904Y-142821904D01*
X130844095Y-142821904D01*
X130958380Y-142783809D01*
X131034571Y-142707619D01*
X131072666Y-142631428D01*
X131110761Y-142479047D01*
X131110761Y-142364761D01*
X131072666Y-142212380D01*
X131034571Y-142136190D01*
X130958380Y-142060000D01*
X130844095Y-142021904D01*
X130767904Y-142021904D01*
X130653619Y-142060000D01*
X130615523Y-142098095D01*
X130044095Y-142021904D02*
X130044095Y-142593333D01*
X130082190Y-142707619D01*
X130158380Y-142783809D01*
X130272666Y-142821904D01*
X130348857Y-142821904D01*
X129282190Y-142821904D02*
X129663142Y-142821904D01*
X129663142Y-142021904D01*
X128558380Y-142745714D02*
X128596476Y-142783809D01*
X128710761Y-142821904D01*
X128786952Y-142821904D01*
X128901238Y-142783809D01*
X128977428Y-142707619D01*
X129015523Y-142631428D01*
X129053619Y-142479047D01*
X129053619Y-142364761D01*
X129015523Y-142212380D01*
X128977428Y-142136190D01*
X128901238Y-142060000D01*
X128786952Y-142021904D01*
X128710761Y-142021904D01*
X128596476Y-142060000D01*
X128558380Y-142098095D01*
X127986952Y-142021904D02*
X127986952Y-142593333D01*
X128025047Y-142707619D01*
X128101238Y-142783809D01*
X128215523Y-142821904D01*
X128291714Y-142821904D01*
X127225047Y-142821904D02*
X127606000Y-142821904D01*
X127606000Y-142021904D01*
X126501238Y-142745714D02*
X126539333Y-142783809D01*
X126653619Y-142821904D01*
X126729809Y-142821904D01*
X126844095Y-142783809D01*
X126920285Y-142707619D01*
X126958380Y-142631428D01*
X126996476Y-142479047D01*
X126996476Y-142364761D01*
X126958380Y-142212380D01*
X126920285Y-142136190D01*
X126844095Y-142060000D01*
X126729809Y-142021904D01*
X126653619Y-142021904D01*
X126539333Y-142060000D01*
X126501238Y-142098095D01*
X125929809Y-142021904D02*
X125929809Y-142593333D01*
X125967904Y-142707619D01*
X126044095Y-142783809D01*
X126158380Y-142821904D01*
X126234571Y-142821904D01*
X125167904Y-142821904D02*
X125548857Y-142821904D01*
X125548857Y-142021904D01*
X124444095Y-142745714D02*
X124482190Y-142783809D01*
X124596476Y-142821904D01*
X124672666Y-142821904D01*
X124786952Y-142783809D01*
X124863142Y-142707619D01*
X124901238Y-142631428D01*
X124939333Y-142479047D01*
X124939333Y-142364761D01*
X124901238Y-142212380D01*
X124863142Y-142136190D01*
X124786952Y-142060000D01*
X124672666Y-142021904D01*
X124596476Y-142021904D01*
X124482190Y-142060000D01*
X124444095Y-142098095D01*
D11*
X74801666Y-105256500D02*
X74801666Y-105589833D01*
X75001666Y-105189833D02*
X74301666Y-105423166D01*
X75001666Y-105656500D01*
X75001666Y-106256500D02*
X75001666Y-105856500D01*
X75001666Y-106056500D02*
X74301666Y-106056500D01*
X74401666Y-105989833D01*
X74468333Y-105923166D01*
X74501666Y-105856500D01*
X74535000Y-106856500D02*
X75001666Y-106856500D01*
X74268333Y-106689833D02*
X74768333Y-106523166D01*
X74768333Y-106956500D01*
X74301666Y-101730166D02*
X75001666Y-101963500D01*
X74301666Y-102196833D01*
X74935000Y-102830166D02*
X74968333Y-102796833D01*
X75001666Y-102696833D01*
X75001666Y-102630166D01*
X74968333Y-102530166D01*
X74901666Y-102463500D01*
X74835000Y-102430166D01*
X74701666Y-102396833D01*
X74601666Y-102396833D01*
X74468333Y-102430166D01*
X74401666Y-102463500D01*
X74335000Y-102530166D01*
X74301666Y-102630166D01*
X74301666Y-102696833D01*
X74335000Y-102796833D01*
X74368333Y-102830166D01*
X74935000Y-103530166D02*
X74968333Y-103496833D01*
X75001666Y-103396833D01*
X75001666Y-103330166D01*
X74968333Y-103230166D01*
X74901666Y-103163500D01*
X74835000Y-103130166D01*
X74701666Y-103096833D01*
X74601666Y-103096833D01*
X74468333Y-103130166D01*
X74401666Y-103163500D01*
X74335000Y-103230166D01*
X74301666Y-103330166D01*
X74301666Y-103396833D01*
X74335000Y-103496833D01*
X74368333Y-103530166D01*
X76841666Y-101763500D02*
X77541666Y-101930166D01*
X77041666Y-102063500D01*
X77541666Y-102196833D01*
X76841666Y-102363500D01*
X77175000Y-102630166D02*
X77175000Y-102863500D01*
X77541666Y-102963500D02*
X77541666Y-102630166D01*
X76841666Y-102630166D01*
X76841666Y-102963500D01*
X79381666Y-101730166D02*
X80081666Y-101963500D01*
X79381666Y-102196833D01*
X80015000Y-102830166D02*
X80048333Y-102796833D01*
X80081666Y-102696833D01*
X80081666Y-102630166D01*
X80048333Y-102530166D01*
X79981666Y-102463500D01*
X79915000Y-102430166D01*
X79781666Y-102396833D01*
X79681666Y-102396833D01*
X79548333Y-102430166D01*
X79481666Y-102463500D01*
X79415000Y-102530166D01*
X79381666Y-102630166D01*
X79381666Y-102696833D01*
X79415000Y-102796833D01*
X79448333Y-102830166D01*
X80015000Y-103530166D02*
X80048333Y-103496833D01*
X80081666Y-103396833D01*
X80081666Y-103330166D01*
X80048333Y-103230166D01*
X79981666Y-103163500D01*
X79915000Y-103130166D01*
X79781666Y-103096833D01*
X79681666Y-103096833D01*
X79548333Y-103130166D01*
X79481666Y-103163500D01*
X79415000Y-103230166D01*
X79381666Y-103330166D01*
X79381666Y-103396833D01*
X79415000Y-103496833D01*
X79448333Y-103530166D01*
X87001666Y-101763500D02*
X87701666Y-101930166D01*
X87201666Y-102063500D01*
X87701666Y-102196833D01*
X87001666Y-102363500D01*
X87335000Y-102630166D02*
X87335000Y-102863500D01*
X87701666Y-102963500D02*
X87701666Y-102630166D01*
X87001666Y-102630166D01*
X87001666Y-102963500D01*
D10*
X108157380Y-98632095D02*
X107157380Y-98632095D01*
X107157380Y-98870190D01*
X107205000Y-99013047D01*
X107300238Y-99108285D01*
X107395476Y-99155904D01*
X107585952Y-99203523D01*
X107728809Y-99203523D01*
X107919285Y-99155904D01*
X108014523Y-99108285D01*
X108109761Y-99013047D01*
X108157380Y-98870190D01*
X108157380Y-98632095D01*
X107157380Y-99536857D02*
X107157380Y-100155904D01*
X107538333Y-99822571D01*
X107538333Y-99965428D01*
X107585952Y-100060666D01*
X107633571Y-100108285D01*
X107728809Y-100155904D01*
X107966904Y-100155904D01*
X108062142Y-100108285D01*
X108109761Y-100060666D01*
X108157380Y-99965428D01*
X108157380Y-99679714D01*
X108109761Y-99584476D01*
X108062142Y-99536857D01*
X105617380Y-98632095D02*
X104617380Y-98632095D01*
X104617380Y-98870190D01*
X104665000Y-99013047D01*
X104760238Y-99108285D01*
X104855476Y-99155904D01*
X105045952Y-99203523D01*
X105188809Y-99203523D01*
X105379285Y-99155904D01*
X105474523Y-99108285D01*
X105569761Y-99013047D01*
X105617380Y-98870190D01*
X105617380Y-98632095D01*
X104950714Y-100060666D02*
X105617380Y-100060666D01*
X104569761Y-99822571D02*
X105284047Y-99584476D01*
X105284047Y-100203523D01*
X103077380Y-98632095D02*
X102077380Y-98632095D01*
X102077380Y-98870190D01*
X102125000Y-99013047D01*
X102220238Y-99108285D01*
X102315476Y-99155904D01*
X102505952Y-99203523D01*
X102648809Y-99203523D01*
X102839285Y-99155904D01*
X102934523Y-99108285D01*
X103029761Y-99013047D01*
X103077380Y-98870190D01*
X103077380Y-98632095D01*
X102077380Y-100108285D02*
X102077380Y-99632095D01*
X102553571Y-99584476D01*
X102505952Y-99632095D01*
X102458333Y-99727333D01*
X102458333Y-99965428D01*
X102505952Y-100060666D01*
X102553571Y-100108285D01*
X102648809Y-100155904D01*
X102886904Y-100155904D01*
X102982142Y-100108285D01*
X103029761Y-100060666D01*
X103077380Y-99965428D01*
X103077380Y-99727333D01*
X103029761Y-99632095D01*
X102982142Y-99584476D01*
X100537380Y-98632095D02*
X99537380Y-98632095D01*
X99537380Y-98870190D01*
X99585000Y-99013047D01*
X99680238Y-99108285D01*
X99775476Y-99155904D01*
X99965952Y-99203523D01*
X100108809Y-99203523D01*
X100299285Y-99155904D01*
X100394523Y-99108285D01*
X100489761Y-99013047D01*
X100537380Y-98870190D01*
X100537380Y-98632095D01*
X99537380Y-100060666D02*
X99537380Y-99870190D01*
X99585000Y-99774952D01*
X99632619Y-99727333D01*
X99775476Y-99632095D01*
X99965952Y-99584476D01*
X100346904Y-99584476D01*
X100442142Y-99632095D01*
X100489761Y-99679714D01*
X100537380Y-99774952D01*
X100537380Y-99965428D01*
X100489761Y-100060666D01*
X100442142Y-100108285D01*
X100346904Y-100155904D01*
X100108809Y-100155904D01*
X100013571Y-100108285D01*
X99965952Y-100060666D01*
X99918333Y-99965428D01*
X99918333Y-99774952D01*
X99965952Y-99679714D01*
X100013571Y-99632095D01*
X100108809Y-99584476D01*
X97997380Y-98632095D02*
X96997380Y-98632095D01*
X96997380Y-98870190D01*
X97045000Y-99013047D01*
X97140238Y-99108285D01*
X97235476Y-99155904D01*
X97425952Y-99203523D01*
X97568809Y-99203523D01*
X97759285Y-99155904D01*
X97854523Y-99108285D01*
X97949761Y-99013047D01*
X97997380Y-98870190D01*
X97997380Y-98632095D01*
X96997380Y-99536857D02*
X96997380Y-100203523D01*
X97997380Y-99774952D01*
X95362142Y-99203523D02*
X95409761Y-99155904D01*
X95457380Y-99013047D01*
X95457380Y-98917809D01*
X95409761Y-98774952D01*
X95314523Y-98679714D01*
X95219285Y-98632095D01*
X95028809Y-98584476D01*
X94885952Y-98584476D01*
X94695476Y-98632095D01*
X94600238Y-98679714D01*
X94505000Y-98774952D01*
X94457380Y-98917809D01*
X94457380Y-99013047D01*
X94505000Y-99155904D01*
X94552619Y-99203523D01*
X94933571Y-99632095D02*
X94933571Y-99965428D01*
X95457380Y-100108285D02*
X95457380Y-99632095D01*
X94457380Y-99632095D01*
X94457380Y-100108285D01*
X92631666Y-98584476D02*
X92631666Y-99060666D01*
X92917380Y-98489238D02*
X91917380Y-98822571D01*
X92917380Y-99155904D01*
X92917380Y-100013047D02*
X92917380Y-99441619D01*
X92917380Y-99727333D02*
X91917380Y-99727333D01*
X92060238Y-99632095D01*
X92155476Y-99536857D01*
X92203095Y-99441619D01*
X91917380Y-100632095D02*
X91917380Y-100727333D01*
X91965000Y-100822571D01*
X92012619Y-100870190D01*
X92107857Y-100917809D01*
X92298333Y-100965428D01*
X92536428Y-100965428D01*
X92726904Y-100917809D01*
X92822142Y-100870190D01*
X92869761Y-100822571D01*
X92917380Y-100727333D01*
X92917380Y-100632095D01*
X92869761Y-100536857D01*
X92822142Y-100489238D01*
X92726904Y-100441619D01*
X92536428Y-100394000D01*
X92298333Y-100394000D01*
X92107857Y-100441619D01*
X92012619Y-100489238D01*
X91965000Y-100536857D01*
X91917380Y-100632095D01*
X89377380Y-98822571D02*
X89377380Y-99013047D01*
X89425000Y-99108285D01*
X89520238Y-99203523D01*
X89710714Y-99251142D01*
X90044047Y-99251142D01*
X90234523Y-99203523D01*
X90329761Y-99108285D01*
X90377380Y-99013047D01*
X90377380Y-98822571D01*
X90329761Y-98727333D01*
X90234523Y-98632095D01*
X90044047Y-98584476D01*
X89710714Y-98584476D01*
X89520238Y-98632095D01*
X89425000Y-98727333D01*
X89377380Y-98822571D01*
X89853571Y-99679714D02*
X89853571Y-100013047D01*
X90377380Y-100155904D02*
X90377380Y-99679714D01*
X89377380Y-99679714D01*
X89377380Y-100155904D01*
X87551666Y-98584476D02*
X87551666Y-99060666D01*
X87837380Y-98489238D02*
X86837380Y-98822571D01*
X87837380Y-99155904D01*
X87837380Y-100013047D02*
X87837380Y-99441619D01*
X87837380Y-99727333D02*
X86837380Y-99727333D01*
X86980238Y-99632095D01*
X87075476Y-99536857D01*
X87123095Y-99441619D01*
X87837380Y-100965428D02*
X87837380Y-100394000D01*
X87837380Y-100679714D02*
X86837380Y-100679714D01*
X86980238Y-100584476D01*
X87075476Y-100489238D01*
X87123095Y-100394000D01*
X85011666Y-98584476D02*
X85011666Y-99060666D01*
X85297380Y-98489238D02*
X84297380Y-98822571D01*
X85297380Y-99155904D01*
X85297380Y-99536857D02*
X85297380Y-99727333D01*
X85249761Y-99822571D01*
X85202142Y-99870190D01*
X85059285Y-99965428D01*
X84868809Y-100013047D01*
X84487857Y-100013047D01*
X84392619Y-99965428D01*
X84345000Y-99917809D01*
X84297380Y-99822571D01*
X84297380Y-99632095D01*
X84345000Y-99536857D01*
X84392619Y-99489238D01*
X84487857Y-99441619D01*
X84725952Y-99441619D01*
X84821190Y-99489238D01*
X84868809Y-99536857D01*
X84916428Y-99632095D01*
X84916428Y-99822571D01*
X84868809Y-99917809D01*
X84821190Y-99965428D01*
X84725952Y-100013047D01*
X82471666Y-98584476D02*
X82471666Y-99060666D01*
X82757380Y-98489238D02*
X81757380Y-98822571D01*
X82757380Y-99155904D01*
X82185952Y-99632095D02*
X82138333Y-99536857D01*
X82090714Y-99489238D01*
X81995476Y-99441619D01*
X81947857Y-99441619D01*
X81852619Y-99489238D01*
X81805000Y-99536857D01*
X81757380Y-99632095D01*
X81757380Y-99822571D01*
X81805000Y-99917809D01*
X81852619Y-99965428D01*
X81947857Y-100013047D01*
X81995476Y-100013047D01*
X82090714Y-99965428D01*
X82138333Y-99917809D01*
X82185952Y-99822571D01*
X82185952Y-99632095D01*
X82233571Y-99536857D01*
X82281190Y-99489238D01*
X82376428Y-99441619D01*
X82566904Y-99441619D01*
X82662142Y-99489238D01*
X82709761Y-99536857D01*
X82757380Y-99632095D01*
X82757380Y-99822571D01*
X82709761Y-99917809D01*
X82662142Y-99965428D01*
X82566904Y-100013047D01*
X82376428Y-100013047D01*
X82281190Y-99965428D01*
X82233571Y-99917809D01*
X82185952Y-99822571D01*
X79931666Y-98584476D02*
X79931666Y-99060666D01*
X80217380Y-98489238D02*
X79217380Y-98822571D01*
X80217380Y-99155904D01*
X80217380Y-100013047D02*
X80217380Y-99441619D01*
X80217380Y-99727333D02*
X79217380Y-99727333D01*
X79360238Y-99632095D01*
X79455476Y-99536857D01*
X79503095Y-99441619D01*
X79217380Y-100346380D02*
X79217380Y-100965428D01*
X79598333Y-100632095D01*
X79598333Y-100774952D01*
X79645952Y-100870190D01*
X79693571Y-100917809D01*
X79788809Y-100965428D01*
X80026904Y-100965428D01*
X80122142Y-100917809D01*
X80169761Y-100870190D01*
X80217380Y-100774952D01*
X80217380Y-100489238D01*
X80169761Y-100394000D01*
X80122142Y-100346380D01*
X77391666Y-98584476D02*
X77391666Y-99060666D01*
X77677380Y-98489238D02*
X76677380Y-98822571D01*
X77677380Y-99155904D01*
X77677380Y-100013047D02*
X77677380Y-99441619D01*
X77677380Y-99727333D02*
X76677380Y-99727333D01*
X76820238Y-99632095D01*
X76915476Y-99536857D01*
X76963095Y-99441619D01*
X77010714Y-100870190D02*
X77677380Y-100870190D01*
X76629761Y-100632095D02*
X77344047Y-100394000D01*
X77344047Y-101013047D01*
X75137380Y-98632095D02*
X74137380Y-98632095D01*
X75137380Y-99203523D01*
X74137380Y-99203523D01*
X75042142Y-100251142D02*
X75089761Y-100203523D01*
X75137380Y-100060666D01*
X75137380Y-99965428D01*
X75089761Y-99822571D01*
X74994523Y-99727333D01*
X74899285Y-99679714D01*
X74708809Y-99632095D01*
X74565952Y-99632095D01*
X74375476Y-99679714D01*
X74280238Y-99727333D01*
X74185000Y-99822571D01*
X74137380Y-99965428D01*
X74137380Y-100060666D01*
X74185000Y-100203523D01*
X74232619Y-100251142D01*
X71597380Y-98536857D02*
X72597380Y-98774952D01*
X71883095Y-98965428D01*
X72597380Y-99155904D01*
X71597380Y-99394000D01*
X72073571Y-99774952D02*
X72073571Y-100108285D01*
X72597380Y-100251142D02*
X72597380Y-99774952D01*
X71597380Y-99774952D01*
X71597380Y-100251142D01*
X69057380Y-98489238D02*
X70057380Y-98822571D01*
X69057380Y-99155904D01*
X69962142Y-100060666D02*
X70009761Y-100013047D01*
X70057380Y-99870190D01*
X70057380Y-99774952D01*
X70009761Y-99632095D01*
X69914523Y-99536857D01*
X69819285Y-99489238D01*
X69628809Y-99441619D01*
X69485952Y-99441619D01*
X69295476Y-99489238D01*
X69200238Y-99536857D01*
X69105000Y-99632095D01*
X69057380Y-99774952D01*
X69057380Y-99870190D01*
X69105000Y-100013047D01*
X69152619Y-100060666D01*
X69962142Y-101060666D02*
X70009761Y-101013047D01*
X70057380Y-100870190D01*
X70057380Y-100774952D01*
X70009761Y-100632095D01*
X69914523Y-100536857D01*
X69819285Y-100489238D01*
X69628809Y-100441619D01*
X69485952Y-100441619D01*
X69295476Y-100489238D01*
X69200238Y-100536857D01*
X69105000Y-100632095D01*
X69057380Y-100774952D01*
X69057380Y-100870190D01*
X69105000Y-101013047D01*
X69152619Y-101060666D01*
X107205000Y-108040285D02*
X107157380Y-107945047D01*
X107157380Y-107802190D01*
X107205000Y-107659333D01*
X107300238Y-107564095D01*
X107395476Y-107516476D01*
X107585952Y-107468857D01*
X107728809Y-107468857D01*
X107919285Y-107516476D01*
X108014523Y-107564095D01*
X108109761Y-107659333D01*
X108157380Y-107802190D01*
X108157380Y-107897428D01*
X108109761Y-108040285D01*
X108062142Y-108087904D01*
X107728809Y-108087904D01*
X107728809Y-107897428D01*
X108157380Y-108516476D02*
X107157380Y-108516476D01*
X108157380Y-109087904D01*
X107157380Y-109087904D01*
X108157380Y-109564095D02*
X107157380Y-109564095D01*
X107157380Y-109802190D01*
X107205000Y-109945047D01*
X107300238Y-110040285D01*
X107395476Y-110087904D01*
X107585952Y-110135523D01*
X107728809Y-110135523D01*
X107919285Y-110087904D01*
X108014523Y-110040285D01*
X108109761Y-109945047D01*
X108157380Y-109802190D01*
X108157380Y-109564095D01*
X105617380Y-108611714D02*
X104617380Y-108611714D01*
X104617380Y-108849809D01*
X104665000Y-108992666D01*
X104760238Y-109087904D01*
X104855476Y-109135523D01*
X105045952Y-109183142D01*
X105188809Y-109183142D01*
X105379285Y-109135523D01*
X105474523Y-109087904D01*
X105569761Y-108992666D01*
X105617380Y-108849809D01*
X105617380Y-108611714D01*
X104712619Y-109564095D02*
X104665000Y-109611714D01*
X104617380Y-109706952D01*
X104617380Y-109945047D01*
X104665000Y-110040285D01*
X104712619Y-110087904D01*
X104807857Y-110135523D01*
X104903095Y-110135523D01*
X105045952Y-110087904D01*
X105617380Y-109516476D01*
X105617380Y-110135523D01*
X103077380Y-108611714D02*
X102077380Y-108611714D01*
X102077380Y-108849809D01*
X102125000Y-108992666D01*
X102220238Y-109087904D01*
X102315476Y-109135523D01*
X102505952Y-109183142D01*
X102648809Y-109183142D01*
X102839285Y-109135523D01*
X102934523Y-109087904D01*
X103029761Y-108992666D01*
X103077380Y-108849809D01*
X103077380Y-108611714D01*
X103077380Y-110135523D02*
X103077380Y-109564095D01*
X103077380Y-109849809D02*
X102077380Y-109849809D01*
X102220238Y-109754571D01*
X102315476Y-109659333D01*
X102363095Y-109564095D01*
X100537380Y-108611714D02*
X99537380Y-108611714D01*
X99537380Y-108849809D01*
X99585000Y-108992666D01*
X99680238Y-109087904D01*
X99775476Y-109135523D01*
X99965952Y-109183142D01*
X100108809Y-109183142D01*
X100299285Y-109135523D01*
X100394523Y-109087904D01*
X100489761Y-108992666D01*
X100537380Y-108849809D01*
X100537380Y-108611714D01*
X99537380Y-109802190D02*
X99537380Y-109897428D01*
X99585000Y-109992666D01*
X99632619Y-110040285D01*
X99727857Y-110087904D01*
X99918333Y-110135523D01*
X100156428Y-110135523D01*
X100346904Y-110087904D01*
X100442142Y-110040285D01*
X100489761Y-109992666D01*
X100537380Y-109897428D01*
X100537380Y-109802190D01*
X100489761Y-109706952D01*
X100442142Y-109659333D01*
X100346904Y-109611714D01*
X100156428Y-109564095D01*
X99918333Y-109564095D01*
X99727857Y-109611714D01*
X99632619Y-109659333D01*
X99585000Y-109706952D01*
X99537380Y-109802190D01*
X97711666Y-108706952D02*
X97711666Y-109183142D01*
X97997380Y-108611714D02*
X96997380Y-108945047D01*
X97997380Y-109278380D01*
X96997380Y-109802190D02*
X96997380Y-109897428D01*
X97045000Y-109992666D01*
X97092619Y-110040285D01*
X97187857Y-110087904D01*
X97378333Y-110135523D01*
X97616428Y-110135523D01*
X97806904Y-110087904D01*
X97902142Y-110040285D01*
X97949761Y-109992666D01*
X97997380Y-109897428D01*
X97997380Y-109802190D01*
X97949761Y-109706952D01*
X97902142Y-109659333D01*
X97806904Y-109611714D01*
X97616428Y-109564095D01*
X97378333Y-109564095D01*
X97187857Y-109611714D01*
X97092619Y-109659333D01*
X97045000Y-109706952D01*
X96997380Y-109802190D01*
X95171666Y-108706952D02*
X95171666Y-109183142D01*
X95457380Y-108611714D02*
X94457380Y-108945047D01*
X95457380Y-109278380D01*
X95457380Y-110135523D02*
X95457380Y-109564095D01*
X95457380Y-109849809D02*
X94457380Y-109849809D01*
X94600238Y-109754571D01*
X94695476Y-109659333D01*
X94743095Y-109564095D01*
X92631666Y-108706952D02*
X92631666Y-109183142D01*
X92917380Y-108611714D02*
X91917380Y-108945047D01*
X92917380Y-109278380D01*
X92012619Y-109564095D02*
X91965000Y-109611714D01*
X91917380Y-109706952D01*
X91917380Y-109945047D01*
X91965000Y-110040285D01*
X92012619Y-110087904D01*
X92107857Y-110135523D01*
X92203095Y-110135523D01*
X92345952Y-110087904D01*
X92917380Y-109516476D01*
X92917380Y-110135523D01*
X90091666Y-108706952D02*
X90091666Y-109183142D01*
X90377380Y-108611714D02*
X89377380Y-108945047D01*
X90377380Y-109278380D01*
X89377380Y-109516476D02*
X89377380Y-110135523D01*
X89758333Y-109802190D01*
X89758333Y-109945047D01*
X89805952Y-110040285D01*
X89853571Y-110087904D01*
X89948809Y-110135523D01*
X90186904Y-110135523D01*
X90282142Y-110087904D01*
X90329761Y-110040285D01*
X90377380Y-109945047D01*
X90377380Y-109659333D01*
X90329761Y-109564095D01*
X90282142Y-109516476D01*
X87551666Y-108706952D02*
X87551666Y-109183142D01*
X87837380Y-108611714D02*
X86837380Y-108945047D01*
X87837380Y-109278380D01*
X87170714Y-110040285D02*
X87837380Y-110040285D01*
X86789761Y-109802190D02*
X87504047Y-109564095D01*
X87504047Y-110183142D01*
X85011666Y-108706952D02*
X85011666Y-109183142D01*
X85297380Y-108611714D02*
X84297380Y-108945047D01*
X85297380Y-109278380D01*
X84297380Y-110087904D02*
X84297380Y-109611714D01*
X84773571Y-109564095D01*
X84725952Y-109611714D01*
X84678333Y-109706952D01*
X84678333Y-109945047D01*
X84725952Y-110040285D01*
X84773571Y-110087904D01*
X84868809Y-110135523D01*
X85106904Y-110135523D01*
X85202142Y-110087904D01*
X85249761Y-110040285D01*
X85297380Y-109945047D01*
X85297380Y-109706952D01*
X85249761Y-109611714D01*
X85202142Y-109564095D01*
X82471666Y-108706952D02*
X82471666Y-109183142D01*
X82757380Y-108611714D02*
X81757380Y-108945047D01*
X82757380Y-109278380D01*
X81757380Y-110040285D02*
X81757380Y-109849809D01*
X81805000Y-109754571D01*
X81852619Y-109706952D01*
X81995476Y-109611714D01*
X82185952Y-109564095D01*
X82566904Y-109564095D01*
X82662142Y-109611714D01*
X82709761Y-109659333D01*
X82757380Y-109754571D01*
X82757380Y-109945047D01*
X82709761Y-110040285D01*
X82662142Y-110087904D01*
X82566904Y-110135523D01*
X82328809Y-110135523D01*
X82233571Y-110087904D01*
X82185952Y-110040285D01*
X82138333Y-109945047D01*
X82138333Y-109754571D01*
X82185952Y-109659333D01*
X82233571Y-109611714D01*
X82328809Y-109564095D01*
X79931666Y-108706952D02*
X79931666Y-109183142D01*
X80217380Y-108611714D02*
X79217380Y-108945047D01*
X80217380Y-109278380D01*
X79217380Y-109516476D02*
X79217380Y-110183142D01*
X80217380Y-109754571D01*
X77391666Y-107754571D02*
X77391666Y-108230761D01*
X77677380Y-107659333D02*
X76677380Y-107992666D01*
X77677380Y-108326000D01*
X77677380Y-109183142D02*
X77677380Y-108611714D01*
X77677380Y-108897428D02*
X76677380Y-108897428D01*
X76820238Y-108802190D01*
X76915476Y-108706952D01*
X76963095Y-108611714D01*
X76772619Y-109564095D02*
X76725000Y-109611714D01*
X76677380Y-109706952D01*
X76677380Y-109945047D01*
X76725000Y-110040285D01*
X76772619Y-110087904D01*
X76867857Y-110135523D01*
X76963095Y-110135523D01*
X77105952Y-110087904D01*
X77677380Y-109516476D01*
X77677380Y-110135523D01*
X74851666Y-107754571D02*
X74851666Y-108230761D01*
X75137380Y-107659333D02*
X74137380Y-107992666D01*
X75137380Y-108326000D01*
X75137380Y-109183142D02*
X75137380Y-108611714D01*
X75137380Y-108897428D02*
X74137380Y-108897428D01*
X74280238Y-108802190D01*
X74375476Y-108706952D01*
X74423095Y-108611714D01*
X74137380Y-110087904D02*
X74137380Y-109611714D01*
X74613571Y-109564095D01*
X74565952Y-109611714D01*
X74518333Y-109706952D01*
X74518333Y-109945047D01*
X74565952Y-110040285D01*
X74613571Y-110087904D01*
X74708809Y-110135523D01*
X74946904Y-110135523D01*
X75042142Y-110087904D01*
X75089761Y-110040285D01*
X75137380Y-109945047D01*
X75137380Y-109706952D01*
X75089761Y-109611714D01*
X75042142Y-109564095D01*
X72311666Y-107754571D02*
X72311666Y-108230761D01*
X72597380Y-107659333D02*
X71597380Y-107992666D01*
X72597380Y-108326000D01*
X72597380Y-109183142D02*
X72597380Y-108611714D01*
X72597380Y-108897428D02*
X71597380Y-108897428D01*
X71740238Y-108802190D01*
X71835476Y-108706952D01*
X71883095Y-108611714D01*
X71597380Y-110040285D02*
X71597380Y-109849809D01*
X71645000Y-109754571D01*
X71692619Y-109706952D01*
X71835476Y-109611714D01*
X72025952Y-109564095D01*
X72406904Y-109564095D01*
X72502142Y-109611714D01*
X72549761Y-109659333D01*
X72597380Y-109754571D01*
X72597380Y-109945047D01*
X72549761Y-110040285D01*
X72502142Y-110087904D01*
X72406904Y-110135523D01*
X72168809Y-110135523D01*
X72073571Y-110087904D01*
X72025952Y-110040285D01*
X71978333Y-109945047D01*
X71978333Y-109754571D01*
X72025952Y-109659333D01*
X72073571Y-109611714D01*
X72168809Y-109564095D01*
X70057380Y-108516476D02*
X69057380Y-108516476D01*
X70057380Y-109087904D01*
X69057380Y-109087904D01*
X69962142Y-110135523D02*
X70009761Y-110087904D01*
X70057380Y-109945047D01*
X70057380Y-109849809D01*
X70009761Y-109706952D01*
X69914523Y-109611714D01*
X69819285Y-109564095D01*
X69628809Y-109516476D01*
X69485952Y-109516476D01*
X69295476Y-109564095D01*
X69200238Y-109611714D01*
X69105000Y-109706952D01*
X69057380Y-109849809D01*
X69057380Y-109945047D01*
X69105000Y-110087904D01*
X69152619Y-110135523D01*
D12*
G04 #@! TO.C,JP7*
X121170000Y-100693000D02*
X118370000Y-100693000D01*
X118370000Y-100693000D02*
X118370000Y-102693000D01*
X118370000Y-102693000D02*
X121170000Y-102693000D01*
X121170000Y-102693000D02*
X121170000Y-100693000D01*
D11*
X120436666Y-99454904D02*
X120436666Y-100026333D01*
X120474761Y-100140619D01*
X120550952Y-100216809D01*
X120665238Y-100254904D01*
X120741428Y-100254904D01*
X120055714Y-100254904D02*
X120055714Y-99454904D01*
X119750952Y-99454904D01*
X119674761Y-99493000D01*
X119636666Y-99531095D01*
X119598571Y-99607285D01*
X119598571Y-99721571D01*
X119636666Y-99797761D01*
X119674761Y-99835857D01*
X119750952Y-99873952D01*
X120055714Y-99873952D01*
X119331904Y-99454904D02*
X118798571Y-99454904D01*
X119141428Y-100254904D01*
G04 #@! TD*
M02*
