M48
; DRILL file {KiCad 5.1.9} date Sun Apr 11 00:08:55 2021
; FORMAT={3:3/ absolute / metric / suppress leading zeros}
; #@! TF.CreationDate,2021-04-11T00:08:55+02:00
; #@! TF.GenerationSoftware,Kicad,Pcbnew,5.1.9
FMAT,2
METRIC,TZ
T1C0.400
T2C0.700
T3C0.750
T4C0.800
T5C0.900
T6C1.000
T7C1.100
T8C1.190
T9C3.200
%
G90
G05
T1
X65668Y-141190
X68208Y-142460
X92338Y-141190
X94878Y-142460
X111007Y-109567
X113674Y-119219
X113674Y-132427
T2
X118627Y-108932
X118627Y-116552
X121548Y-108932
X121548Y-116552
X131962Y-91851
X131962Y-99471
X134502Y-102709
X134502Y-105249
X134502Y-107535
X142122Y-102709
X142122Y-105249
X142122Y-107535
T3
X118627Y-104360
X119897Y-104360
X121167Y-104360
T4
X57159Y-132380
X57159Y-137380
X60588Y-131157
X60588Y-138777
X63128Y-131157
X63128Y-138777
X65367Y-90581
X65668Y-131157
X65668Y-138777
X68208Y-131157
X68208Y-138777
X70367Y-90581
X70748Y-131157
X70748Y-138777
X73288Y-131157
X73288Y-138777
X75828Y-131157
X75828Y-138777
X78368Y-131157
X78368Y-138777
X83448Y-132380
X83448Y-137380
X87258Y-131157
X87258Y-138777
X89798Y-131157
X89798Y-138777
X92338Y-131157
X92338Y-138777
X94878Y-131157
X94878Y-138777
X97418Y-131157
X97418Y-138777
X99958Y-131157
X99958Y-138777
X102498Y-131157
X102498Y-138777
X105038Y-131157
X105038Y-138777
X116341Y-121124
X116341Y-123624
X116341Y-125990
X116341Y-128490
X120405Y-122775
X120405Y-127655
X124469Y-102709
X124469Y-105249
X124469Y-107789
X124469Y-110329
X124469Y-112869
X124469Y-115409
X124469Y-117949
X124469Y-120489
X124469Y-123029
X124469Y-125569
X124469Y-128109
X124469Y-130649
X124469Y-133189
X124469Y-135729
X125866Y-139158
X130866Y-139158
X132089Y-102709
X132089Y-105249
X132089Y-107789
X132089Y-110329
X132089Y-112869
X132089Y-115409
X132089Y-117949
X132089Y-120489
X132089Y-123029
X132089Y-125569
X132089Y-128109
X132089Y-130649
X132089Y-133189
X132089Y-135729
X135264Y-118029
X135264Y-123029
T5
X119072Y-82770
X119072Y-85310
X125612Y-82770
X125612Y-85310
X132153Y-82770
X132153Y-85310
T6
X69605Y-96740
X69605Y-111980
X70875Y-118838
X70875Y-121378
X70875Y-123918
X72145Y-96740
X72145Y-111980
X73415Y-84675
X73415Y-87215
X73415Y-89755
X73415Y-118838
X73415Y-121378
X73415Y-123918
X74685Y-96740
X74685Y-111980
X75955Y-84675
X75955Y-87215
X75955Y-89755
X77225Y-96740
X77225Y-111980
X78495Y-84675
X78495Y-87215
X78495Y-89755
X79765Y-96740
X79765Y-111980
X82305Y-96740
X82305Y-111980
X84845Y-96740
X84845Y-111980
X86115Y-84675
X86115Y-87215
X86115Y-89755
X87385Y-96740
X87385Y-111980
X89925Y-96740
X89925Y-111980
X92465Y-96740
X92465Y-111980
X95005Y-96740
X95005Y-111980
X97545Y-96740
X97545Y-111980
X100085Y-96740
X100085Y-111980
X102625Y-96740
X102625Y-111980
X105165Y-96740
X105165Y-111980
X107705Y-96740
X107705Y-111980
X143265Y-112869
X143265Y-115409
X143265Y-117949
X143265Y-120489
X143265Y-123029
X143265Y-125569
T7
X122541Y-92367
X122541Y-96867
X129041Y-92367
X129041Y-96867
T8
X141550Y-129800
X141550Y-132340
T9
X63128Y-85056
X63128Y-122521
X139836Y-85056
X139836Y-139920
T0
M30
